HIERARCHY
ROOT Hips
{
	OFFSET 0.058547 100.481255 -0.522458
	CHANNELS 6 Xposition Yposition Zposition Xrotation Yrotation Zrotation 
	JOINT Spine
	{
		OFFSET -0.279214 12.230705 -2.892139
		CHANNELS 3 Xrotation Yrotation Zrotation
		JOINT Spine1
		{
			OFFSET -0.232678 10.192256 -1.242257
			CHANNELS 3 Xrotation Yrotation Zrotation
			JOINT Spine1_split
			{
				OFFSET -0.232678 10.192256 -1.242257
				CHANNELS 3 Xrotation Yrotation Zrotation
				JOINT Spine2
				{
					OFFSET -0.232678 10.192256 -1.242257
					CHANNELS 3 Xrotation Yrotation Zrotation
					JOINT Neck
					{
						OFFSET -0.418821 17.814224 8.416937
						CHANNELS 3 Xrotation Yrotation Zrotation
						JOINT Head
						{
							OFFSET 0.000000 7.031097 3.806764
							CHANNELS 3 Xrotation Yrotation Zrotation
							JOINT HeadTop_End
							{
								OFFSET 0.000000 24.646591 12.978601
								CHANNELS 3 Xrotation Yrotation Zrotation
								End Site
								{
									OFFSET 0.000000 0.000000 0.000000
								}
							}
						}
					}
					JOINT LeftShoulder
					{
						OFFSET 8.476512 7.247673 -3.868757
						CHANNELS 3 Xrotation Yrotation Zrotation
						JOINT LeftShoulder_split
						{
							OFFSET 8.476512 7.247673 -3.868757
							CHANNELS 3 Xrotation Yrotation Zrotation
							JOINT LeftArm
							{
								OFFSET 9.308996 -2.777740 0.208551
								CHANNELS 3 Xrotation Yrotation Zrotation
								JOINT LeftForeArm
								{
									OFFSET 29.972336 0.000015 0.000022
									CHANNELS 3 Xrotation Yrotation Zrotation
									JOINT LeftHand
									{
										OFFSET 26.026470 0.000015 0.000033
										CHANNELS 3 Xrotation Yrotation Zrotation
										JOINT LeftHandThumb1
										{
											OFFSET 12.240555 -7.117950 9.230400
											CHANNELS 3 Xrotation Yrotation Zrotation
											JOINT LeftHandThumb2
											{
												OFFSET 4.138626 -2.389450 2.389374
												CHANNELS 3 Xrotation Yrotation Zrotation
												JOINT LeftHandThumb3
												{
													OFFSET 2.726952 -1.574417 1.574393
													CHANNELS 3 Xrotation Yrotation Zrotation
													JOINT LeftHandThumb4
													{
														OFFSET 3.940979 -2.275375 2.275301
														CHANNELS 3 Xrotation Yrotation Zrotation
														End Site
														{
															OFFSET 0.000000 0.000000 0.000000
														}
													}
												}
											}
										}
										JOINT LeftHandIndex1
										{
											OFFSET 24.424660 -1.966187 5.959913
											CHANNELS 3 Xrotation Yrotation Zrotation
											JOINT LeftHandIndex2
											{
												OFFSET 6.426682 0.000015 0.000035
												CHANNELS 3 Xrotation Yrotation Zrotation
												JOINT LeftHandIndex3
												{
													OFFSET 5.337883 -0.000031 0.000035
													CHANNELS 3 Xrotation Yrotation Zrotation
													JOINT LeftHandIndex4
													{
														OFFSET 4.409393 -0.000015 0.000044
														CHANNELS 3 Xrotation Yrotation Zrotation
														End Site
														{
															OFFSET 0.000000 0.000000 0.000000
														}
													}
												}
											}
										}
										JOINT LeftHandMiddle1
										{
											OFFSET 23.810127 0.000000 0.000041
											CHANNELS 3 Xrotation Yrotation Zrotation
											JOINT LeftHandMiddle2
											{
												OFFSET 7.176491 -0.000015 0.000051
												CHANNELS 3 Xrotation Yrotation Zrotation
												JOINT LeftHandMiddle3
												{
													OFFSET 6.774864 -0.000015 0.000032
													CHANNELS 3 Xrotation Yrotation Zrotation
													JOINT LeftHandMiddle4
													{
														OFFSET 5.402740 -0.027710 -0.077597
														CHANNELS 3 Xrotation Yrotation Zrotation
														End Site
														{
															OFFSET 0.000000 0.000000 0.000000
														}
													}
												}
											}
										}
										JOINT LeftHandRing1
										{
											OFFSET 22.908371 -0.858917 -6.017762
											CHANNELS 3 Xrotation Yrotation Zrotation
											JOINT LeftHandRing2
											{
												OFFSET 6.337524 0.000000 -0.000050
												CHANNELS 3 Xrotation Yrotation Zrotation
												JOINT LeftHandRing3
												{
													OFFSET 5.779289 0.000000 -0.000029
													CHANNELS 3 Xrotation Yrotation Zrotation
													JOINT LeftHandRing4
													{
														OFFSET 4.965714 0.000031 -0.000057
														CHANNELS 3 Xrotation Yrotation Zrotation
														End Site
														{
															OFFSET 0.000000 0.000000 0.000000
														}
													}
												}
											}
										}
										JOINT LeftHandPinky1
										{
											OFFSET 20.036995 -1.565994 -10.945109
											CHANNELS 3 Xrotation Yrotation Zrotation
											JOINT LeftHandPinky2
											{
												OFFSET 5.254700 -0.000015 0.000002
												CHANNELS 3 Xrotation Yrotation Zrotation
												JOINT LeftHandPinky3
												{
													OFFSET 4.810226 -0.000015 -0.000019
													CHANNELS 3 Xrotation Yrotation Zrotation
													JOINT LeftHandPinky4
													{
														OFFSET 3.647247 0.000015 -0.000044
														CHANNELS 3 Xrotation Yrotation Zrotation
														End Site
														{
															OFFSET 0.000000 0.000000 0.000000
														}
													}
												}
											}
										}
									}
								}
							}
						}
					}
					JOINT RightShoulder
					{
						OFFSET -7.570480 7.247673 -3.868757
						CHANNELS 3 Xrotation Yrotation Zrotation
						JOINT RightShoulder_split
						{
							OFFSET -7.570480 7.247673 -3.868757
							CHANNELS 3 Xrotation Yrotation Zrotation
							JOINT RightArm
							{
								OFFSET -9.309000 -2.777725 0.208549
								CHANNELS 3 Xrotation Yrotation Zrotation
								JOINT RightForeArm
								{
									OFFSET -29.972336 0.000061 -0.000048
									CHANNELS 3 Xrotation Yrotation Zrotation
									JOINT RightHand
									{
										OFFSET -26.026474 0.000092 0.000017
										CHANNELS 3 Xrotation Yrotation Zrotation
										JOINT RightHandThumb1
										{
											OFFSET -12.240570 -7.117905 9.230402
											CHANNELS 3 Xrotation Yrotation Zrotation
											JOINT RightHandThumb2
											{
												OFFSET -4.138580 -2.389465 2.389442
												CHANNELS 3 Xrotation Yrotation Zrotation
												JOINT RightHandThumb3
												{
													OFFSET -2.726990 -1.574402 1.574351
													CHANNELS 3 Xrotation Yrotation Zrotation
													JOINT RightHandThumb4
													{
														OFFSET -3.940971 -2.275345 2.275330
														CHANNELS 3 Xrotation Yrotation Zrotation
														End Site
														{
															OFFSET 0.000000 0.000000 0.000000
														}
													}
												}
											}
										}
										JOINT RightHandIndex1
										{
											OFFSET -24.424667 -1.966171 5.959853
											CHANNELS 3 Xrotation Yrotation Zrotation
											JOINT RightHandIndex2
											{
												OFFSET -6.426682 -0.000046 0.000010
												CHANNELS 3 Xrotation Yrotation Zrotation
												JOINT RightHandIndex3
												{
													OFFSET -5.337891 0.000015 0.000031
													CHANNELS 3 Xrotation Yrotation Zrotation
													JOINT RightHandIndex4
													{
														OFFSET -4.409386 0.000015 0.000044
														CHANNELS 3 Xrotation Yrotation Zrotation
														End Site
														{
															OFFSET 0.000000 0.000000 0.000000
														}
													}
												}
											}
										}
										JOINT RightHandMiddle1
										{
											OFFSET -23.810127 -0.000015 -0.000027
											CHANNELS 3 Xrotation Yrotation Zrotation
											JOINT RightHandMiddle2
											{
												OFFSET -7.176491 -0.000046 -0.000001
												CHANNELS 3 Xrotation Yrotation Zrotation
												JOINT RightHandMiddle3
												{
													OFFSET -6.774857 -0.000046 0.000038
													CHANNELS 3 Xrotation Yrotation Zrotation
													JOINT RightHandMiddle4
													{
														OFFSET -5.402740 -0.027740 -0.077594
														CHANNELS 3 Xrotation Yrotation Zrotation
														End Site
														{
															OFFSET 0.000000 0.000000 0.000000
														}
													}
												}
											}
										}
										JOINT RightHandRing1
										{
											OFFSET -22.908348 -0.858963 -6.017824
											CHANNELS 3 Xrotation Yrotation Zrotation
											JOINT RightHandRing2
											{
												OFFSET -6.337524 0.000046 -0.000019
												CHANNELS 3 Xrotation Yrotation Zrotation
												JOINT RightHandRing3
												{
													OFFSET -5.779289 0.000046 -0.000004
													CHANNELS 3 Xrotation Yrotation Zrotation
													JOINT RightHandRing4
													{
														OFFSET -4.965721 -0.000031 -0.000032
														CHANNELS 3 Xrotation Yrotation Zrotation
														End Site
														{
															OFFSET 0.000000 0.000000 0.000000
														}
													}
												}
											}
										}
										JOINT RightHandPinky1
										{
											OFFSET -20.036957 -1.566071 -10.945158
											CHANNELS 3 Xrotation Yrotation Zrotation
											JOINT RightHandPinky2
											{
												OFFSET -5.254700 0.000031 -0.000025
												CHANNELS 3 Xrotation Yrotation Zrotation
												JOINT RightHandPinky3
												{
													OFFSET -4.810226 -0.000015 -0.000048
													CHANNELS 3 Xrotation Yrotation Zrotation
													JOINT RightHandPinky4
													{
														OFFSET -3.647247 -0.000031 -0.000029
														CHANNELS 3 Xrotation Yrotation Zrotation
														End Site
														{
															OFFSET 0.000000 0.000000 0.000000
														}
													}
												}
											}
										}
									}
								}
							}
						}
					}
				}
			}
		}
	}
	JOINT LeftUpLeg
	{
		OFFSET 15.427091 -6.655090 0.678631
		CHANNELS 3 Xrotation Yrotation Zrotation
		JOINT LeftLeg
		{
			OFFSET 4.088469 -39.590321 13.023970
			CHANNELS 3 Xrotation Yrotation Zrotation
			JOINT LeftFoot
			{
				OFFSET -4.073973 -37.708702 -15.979749
				CHANNELS 3 Xrotation Yrotation Zrotation
				JOINT LeftToeBase
				{
					OFFSET 5.346369 -15.068922 20.645004
					CHANNELS 3 Xrotation Yrotation Zrotation
					JOINT LeftToe_End
					{
						OFFSET 2.754658 0.931270 11.300900
						CHANNELS 3 Xrotation Yrotation Zrotation
						End Site
						{
							OFFSET 0.000000 0.000000 0.000000
						}
					}
				}
			}
		}
	}
	JOINT RightUpLeg
	{
		OFFSET -15.569522 -6.655090 0.678631
		CHANNELS 3 Xrotation Yrotation Zrotation
		JOINT RightLeg
		{
			OFFSET -4.074467 -39.591820 13.023795
			CHANNELS 3 Xrotation Yrotation Zrotation
			JOINT RightFoot
			{
				OFFSET 4.088761 -37.707176 -15.979579
				CHANNELS 3 Xrotation Yrotation Zrotation
				JOINT RightToeBase
				{
					OFFSET -5.346370 -15.068919 20.645004
					CHANNELS 3 Xrotation Yrotation Zrotation
					JOINT RightToe_End
					{
						OFFSET -2.754656 0.931271 11.300900
						CHANNELS 3 Xrotation Yrotation Zrotation
						End Site
						{
							OFFSET 0.000000 0.000000 0.000000
						}
					}
				}
			}
		}
	}
}
MOTION
Frames: 4
Frame Time: 0.016667
-0.105975 94.413765 -0.541412 -3.650867 -0.186117 -3.667588 4.739325 1.324204 0.847306 2.572230 0.188489 0.804270 0.000000 0.000000 0.000000 2.570293 0.195339 0.808666 -1.342909 -0.050186 -0.205819 -4.952819 -0.368062 -0.267113 0.000000 0.000000 0.000000 0.348350 0.827242 -4.748639 0.000000 0.000000 0.000000 -4.646807 -26.876595 -75.700346 -0.000004 -6.250269 0.000007 7.333283 -3.143638 -5.530533 3.064680 15.578207 9.155133 3.449442 10.370076 1.748278 -0.871886 8.783939 6.235793 0.000002 -0.000002 -0.000003 1.045843 3.533770 -24.225667 0.418240 2.333807 -20.317535 0.275746 1.905520 -16.466261 -0.000002 -0.000000 -0.000004 1.220292 3.978148 -26.285903 0.978248 3.489357 -31.306777 0.393249 2.404085 -27.484992 -0.000000 0.000002 -0.000000 1.517235 4.506909 -28.941181 1.963203 4.741511 -44.964218 1.725432 4.491671 -42.020710 0.000000 0.000001 0.000000 3.916775 8.380118 -30.842607 2.963678 1.474390 -56.176370 2.709827 5.383778 -53.409696 0.000001 0.000001 0.000003 0.341724 -1.804782 5.898548 0.000000 0.000000 0.000000 -7.105175 8.586864 75.867945 0.000026 8.316283 0.000030 28.610508 5.938968 1.308791 1.808218 -17.753668 -10.709044 1.794662 -7.963470 -2.666288 -3.099469 -5.718183 -6.963712 0.000001 -0.000002 -0.000002 2.917745 -7.062108 28.388909 0.207887 -1.667298 14.213145 0.113507 -1.236430 10.489394 -0.000000 -0.000000 0.000002 4.010861 -8.367795 31.544389 0.561248 -2.702354 23.461614 -0.573452 -1.815614 19.771142 0.000000 0.000002 0.000002 5.578626 -9.861008 35.587690 1.223674 -3.885471 34.951581 0.354841 -4.059195 32.184896 0.000000 -0.000002 0.000000 6.994443 -10.931397 38.913551 1.909110 -4.714185 44.074258 1.741760 -4.535530 41.999018 -0.000001 0.000000 0.000001 -4.960029 13.812163 10.508300 21.655145 9.076680 2.194164 -12.494151 5.102629 -9.150077 -4.613305 0.000009 -0.000003 -0.000000 -0.000000 -0.000000 -9.057608 -4.191569 -2.621287 16.354856 -9.112372 -2.987444 -0.306420 -14.056808 8.994668 -4.229444 0.000007 0.000002 0.000000 -0.000000 -0.000000 
-0.099962 94.409500 -0.562737 -3.637663 -0.225625 -3.683245 4.708497 1.342850 0.860178 2.581958 0.191239 0.804231 0.000000 0.000000 0.000000 2.580007 0.197996 0.808711 -1.369562 -0.055531 -0.193555 -4.967042 -0.376295 -0.278138 0.000000 -0.000000 -0.000000 0.347455 0.837248 -4.741834 0.000000 0.000000 0.000000 -4.549979 -26.726826 -75.691924 0.000005 -6.131440 -0.000001 7.517684 -3.110820 -5.598591 3.061892 15.615710 9.175484 3.449443 10.370077 1.748276 -0.891005 8.751108 6.240758 -0.000001 -0.000001 -0.000003 1.046210 3.542564 -24.169666 0.418232 2.333820 -20.317523 0.275840 1.905855 -16.469188 -0.000001 -0.000004 -0.000001 1.233977 4.017114 -26.184191 0.976857 3.487057 -31.283776 0.390586 2.397064 -27.421442 0.000000 -0.000003 -0.000000 1.550664 4.582132 -28.782772 1.958948 4.737267 -44.912766 1.713930 4.478900 -41.873632 0.000001 -0.000002 -0.000001 3.956679 8.490556 -30.641499 2.956561 1.469607 -56.103150 2.689674 5.368830 -53.194722 -0.000000 0.000000 0.000001 0.343149 -1.818727 5.908489 0.000000 0.000000 0.000000 -7.059977 8.519277 75.873122 0.000027 8.282909 0.000041 28.621535 5.891436 1.289336 1.822681 -17.743184 -10.680549 1.794652 -7.963470 -2.666295 -3.109933 -5.697736 -6.966765 0.000000 -0.000002 -0.000003 2.904845 -7.032462 28.429163 0.207880 -1.667291 14.213058 0.112968 -1.233543 10.464658 -0.000002 -0.000001 -0.000002 4.001285 -8.346838 31.569285 0.561240 -2.702336 23.461483 -0.575660 -1.814009 19.753015 0.000000 0.000001 0.000003 5.572956 -9.851249 35.593820 1.223665 -3.885471 34.951324 0.353011 -4.058599 32.175389 0.000000 0.000000 0.000000 6.991870 -10.931074 38.904983 1.909101 -4.714169 44.074258 1.741573 -4.535340 41.996559 -0.000001 0.000000 0.000002 -4.996620 13.839874 10.545920 21.678192 9.071881 2.156467 -12.500260 5.097225 -9.127764 -4.622847 -0.000005 -0.000001 -0.000000 0.000001 0.000000 -9.095693 -4.191879 -2.620718 16.350315 -9.112824 -2.963230 -0.285290 -14.017964 8.974014 -4.230479 0.000004 0.000005 -0.000000 0.000002 0.000000 
-0.094759 94.404091 -0.583839 -3.631850 -0.270895 -3.699884 4.692118 1.367348 0.872885 2.590687 0.194722 0.803344 0.000000 0.000000 0.000000 2.588719 0.201398 0.807921 -1.393973 -0.062377 -0.180075 -4.978305 -0.387753 -0.294712 0.000000 -0.000000 0.000000 0.346954 0.834368 -4.735731 0.000000 0.000000 0.000000 -4.475079 -26.567199 -75.686255 -0.000001 -6.012268 -0.000005 7.656667 -3.086158 -5.666707 3.058349 15.654469 9.197678 3.449441 10.370077 1.748278 -0.913375 8.712748 6.246619 0.000005 -0.000002 -0.000002 1.047779 3.554533 -24.111833 0.418242 2.333792 -20.317543 0.275935 1.906195 -16.472123 -0.000002 -0.000003 -0.000002 1.249915 4.063096 -26.063674 0.974749 3.483596 -31.249154 0.386425 2.386053 -27.321648 0.000000 0.000003 -0.000001 1.587575 4.669361 -28.584391 1.952505 4.730821 -44.834864 1.696111 4.458993 -41.644985 0.000001 -0.000001 -0.000002 3.997593 8.619148 -30.383680 2.945753 1.462349 -55.991903 2.658550 5.345489 -52.861382 -0.000001 -0.000001 -0.000001 0.344003 -1.820554 5.917527 0.000000 0.000000 0.000000 -7.013221 8.468902 75.875547 0.000019 8.268110 0.000081 28.620866 5.865957 1.276303 1.834508 -17.732028 -10.656123 1.794674 -7.963456 -2.666268 -3.117758 -5.682521 -6.969124 0.000002 -0.000001 -0.000004 2.890888 -6.995821 28.501160 0.207882 -1.667287 14.213028 0.112587 -1.231472 10.447014 -0.000002 -0.000002 0.000001 3.990299 -8.320140 31.614135 0.561233 -2.702314 23.461336 -0.577313 -1.812955 19.740283 0.000001 -0.000001 -0.000002 5.565165 -9.837675 35.605189 1.223652 -3.885459 34.951096 0.351611 -4.058252 32.168962 0.000000 0.000002 0.000000 6.986504 -10.928746 38.889871 1.909099 -4.714185 44.074261 1.741477 -4.535212 41.995336 -0.000001 0.000003 0.000001 -5.024893 13.866371 10.582243 21.703365 9.066985 2.123443 -12.508307 5.099336 -9.109100 -4.631428 -0.000000 0.000003 0.000000 -0.000002 -0.000000 -9.129011 -4.189504 -2.616704 16.348664 -9.112770 -2.942229 -0.265413 -13.975026 8.954103 -4.230210 0.000008 0.000000 -0.000000 -0.000000 -0.000000 
-0.089983 94.397316 -0.604440 -3.633290 -0.316652 -3.715071 4.690688 1.394069 0.885044 2.598472 0.198443 0.801675 0.000000 0.000000 0.000000 2.596479 0.205050 0.806348 -1.416040 -0.070100 -0.166237 -4.986065 -0.401496 -0.314482 -0.000000 -0.000000 0.000000 0.346657 0.819096 -4.726620 0.000000 0.000000 0.000000 -4.417430 -26.401657 -75.685961 0.000003 -5.897915 0.000005 7.744231 -3.065627 -5.732919 3.054105 15.689761 9.219552 3.449442 10.370077 1.748276 -0.936974 8.672262 6.252792 -0.000000 -0.000002 -0.000006 1.049731 3.567217 -24.054961 0.418239 2.333804 -20.317511 0.276030 1.906494 -16.474911 -0.000000 -0.000002 -0.000002 1.265824 4.111023 -25.929700 0.971997 3.479077 -31.203958 0.380950 2.371490 -27.189701 0.000000 0.000001 -0.000000 1.623487 4.760348 -28.354519 1.944124 4.722402 -44.733040 1.672785 4.432700 -41.343989 0.000001 0.000002 -0.000001 4.033529 8.754868 -30.079713 2.931619 1.452798 -55.846260 2.617850 5.314554 -52.423187 0.000003 -0.000001 -0.000002 0.344245 -1.806889 5.926654 0.000000 0.000000 0.000000 -6.964259 8.428248 75.873430 0.000021 8.267152 0.000067 28.614149 5.858367 1.265062 1.843828 -17.721703 -10.636265 1.794653 -7.963481 -2.666315 -3.123010 -5.672261 -6.970695 0.000000 -0.000002 -0.000001 2.876156 -6.953270 28.601006 0.207881 -1.667295 14.212971 0.112367 -1.230263 10.436588 -0.000003 0.000001 -0.000001 3.978693 -8.289278 31.677547 0.561226 -2.702298 23.461218 -0.578897 -1.812564 19.732746 -0.000000 0.000001 -0.000001 5.556997 -9.822222 35.623572 1.223636 -3.885433 34.950833 0.350145 -4.058433 32.165164 -0.000000 -0.000000 -0.000000 6.980945 -10.926514 38.872608 1.909112 -4.714182 44.074234 1.741426 -4.535159 41.994735 -0.000001 0.000002 0.000001 -5.045153 13.887941 10.612403 21.730749 9.062379 2.097935 -12.517703 5.108952 -9.094463 -4.637891 0.000005 -0.000003 -0.000000 0.000001 -0.000000 -9.157296 -4.185365 -2.611631 16.351963 -9.112456 -2.926252 -0.248081 -13.932107 8.937470 -4.228320 0.000009 -0.000002 0.000000 -0.000002 -0.000000 
